<?xml version="1.0" encoding="UTF-8" standalone="no"?>
<svg width="300px" height="187px" viewBox="0 0 300 187" version="1.1" xmlns="http://www.w3.org/2000/svg" xmlns:xlink="http://www.w3.org/1999/xlink" xmlns:sketch="http://www.bohemiancoding.com/sketch/ns">
    <!-- Generator: Sketch 3.3.3 (12072) - http://www.bohemiancoding.com/sketch -->
    <title>clientBox_Fyber</title>
    <desc>Created with Sketch.</desc>
    <defs>
        <filter x="-50%" y="-50%" width="200%" height="200%" filterUnits="objectBoundingBox" id="filter-1">
            <feOffset dx="0" dy="5" in="SourceAlpha" result="shadowOffsetInner1"></feOffset>
            <feGaussianBlur stdDeviation="1.5" in="shadowOffsetInner1" result="shadowBlurInner1"></feGaussianBlur>
            <feComposite in="shadowBlurInner1" in2="SourceAlpha" operator="arithmetic" k2="-1" k3="1" result="shadowInnerInner1"></feComposite>
            <feColorMatrix values="0 0 0 0 0   0 0 0 0 0   0 0 0 0 0  0 0 0 0.231 0" in="shadowInnerInner1" type="matrix" result="shadowMatrixInner1"></feColorMatrix>
            <feMerge>
                <feMergeNode in="SourceGraphic"></feMergeNode>
                <feMergeNode in="shadowMatrixInner1"></feMergeNode>
            </feMerge>
        </filter>
    </defs>
    <g id="Page-1" stroke="none" stroke-width="1" fill="none" fill-rule="evenodd" sketch:type="MSPage">
        <g id="Ref_Fyber" sketch:type="MSArtboardGroup" transform="translate(-571.000000, -2960.000000)">
            <g id="Weitere_Projekte" sketch:type="MSLayerGroup" transform="translate(-22.000000, 2718.000000)">
                <g id="clientBox_Fyber" transform="translate(593.000000, 242.000000)" sketch:type="MSShapeGroup">
                    <rect id="Rectangle-5-Copy" stroke="#FFFFFF" stroke-width="4" fill="#58544D" filter="url(#filter-1)" x="0" y="0" width="300" height="187"></rect>
                    <g id="logo_fyber-copy" transform="translate(46.000000, 59.000000)">
                        <path d="M35,0 C25.65115,0 16.86195,3.6407 10.25115,10.25115 C3.6407,16.86195 0,25.65115 0,35 C0,44.34885 3.6407,53.13805 10.25115,59.74885 C16.86195,66.3593 25.65115,70 35,70 C44.34885,70 53.13805,66.3593 59.74885,59.74885 C66.3593,53.13805 70,44.34885 70,35 C70,25.65115 66.3593,16.86195 59.74885,10.25115 C53.13805,3.6407 44.34885,0 35,0 L35,0 Z M35,8.4679 C49.65345,8.4679 61.5321,20.34655 61.5321,35 C61.5321,49.65345 49.65345,61.5321 35,61.5321 C20.3469,61.5321 8.4679,49.65345 8.4679,35 C8.4679,20.34655 20.3469,8.4679 35,8.4679 L35,8.4679 Z" id="Fill-1" fill="#BFE4ED"></path>
                        <path d="M46,25.4479868 L46,17 L29.4452757,17 L21,25.55236 L21,34 L29.3932655,34 L29.3932655,25.4479868 L46,25.4479868" id="Fill-2" fill="#FFFFFF"></path>
                        <path d="M21,52 L29.4452757,52 L29.4452757,43.4897075 L46,43.4897075 L46,35 L29.4452757,35 L21,43.4897075 L21,52" id="Fill-3" fill="#FFFFFF"></path>
                        <path d="M102,48 L102,18 L121,18 L121,21.8490566 L106.316626,21.8490566 L106.316626,31.4965059 L119.632716,31.4965059 L119.632716,35.3899371 L106.316626,35.3899371 L106.316626,48 L102,48" id="Fill-4" fill="#FFFFFF"></path>
                        <path d="M125.632991,57 L130.642659,46.1984261 L122,28 L126.511941,28 L132.772819,42.1185181 L138.782766,28 L143,28 L129.932606,57 L125.632991,57" id="Fill-5" fill="#FFFFFF"></path>
                        <path d="M157.435477,30.1224906 C153.751074,30.1224906 151.084739,32.857703 151.084739,37.2334872 C151.084739,41.6047567 153.751074,44.4663806 157.435477,44.4663806 C161.253326,44.4663806 163.740023,41.6047567 163.740023,37.2334872 C163.740023,32.857703 161.299152,30.1224906 157.435477,30.1224906 L157.435477,30.1224906 Z M147,47.450596 L147,17 L151.130931,17 L151.130931,30.0832474 C152.153032,28.2728536 154.63533,26.6326291 158.190688,26.6326291 C164.670472,26.6326291 168,31.34389 168,37.2334872 C168,43.2449812 164.403216,48 158.057243,48 C154.902587,48 152.461716,46.6959469 151.130931,44.5056238 L151.130931,47.450596 L147,47.450596 L147,47.450596 Z" id="Fill-6" fill="#FFFFFF"></path>
                        <path d="M187.748057,35.4648743 C187.662452,32.6303561 185.70966,30.4140438 182.020058,30.4140438 C178.596225,30.4140438 176.513056,32.9201189 176.337548,35.4648743 L187.748057,35.4648743 L187.748057,35.4648743 Z M191.869265,41.7517773 C190.695154,45.2465747 187.356567,48 182.497152,48 C176.904545,48 172,44.1384185 172,37.4382473 C172,31.2324371 176.729038,27 181.979584,27 C188.396003,27 192,31.1940962 192,37.3571544 C192,37.8515155 191.954869,38.3418051 191.909739,38.5891553 L176.207171,38.5891553 C176.297074,42.1222937 178.983058,44.5903671 182.497152,44.5903671 C185.88087,44.5903671 187.572549,42.8215925 188.355528,40.6049409 L191.869265,41.7517773 L191.869265,41.7517773 Z" id="Fill-7" fill="#FFFFFF"></path>
                        <path d="M208,31.4236283 C207.423022,31.3388723 206.846044,31.2945438 206.311932,31.2945438 C203.055545,31.2945438 200.871807,33.0985359 200.871807,37.6516034 L200.871807,48 L197,48 L197,27.3429252 L200.790499,27.3429252 L200.790499,30.951264 C202.234985,27.7752166 204.705171,27 206.722212,27 C207.260747,27 207.79486,27.0847561 208,27.1290846 L208,31.4236283" id="Fill-8" fill="#FFFFFF"></path>
                    </g>
                </g>
            </g>
        </g>
    </g>
</svg>