<?xml version="1.0" encoding="UTF-8" standalone="no"?>
<svg width="300px" height="187px" viewBox="0 0 300 187" version="1.1" xmlns="http://www.w3.org/2000/svg" xmlns:xlink="http://www.w3.org/1999/xlink" xmlns:sketch="http://www.bohemiancoding.com/sketch/ns">
    <!-- Generator: Sketch 3.3.3 (12072) - http://www.bohemiancoding.com/sketch -->
    <title>clientBox_Corsual</title>
    <desc>Created with Sketch.</desc>
    <defs>
        <filter x="-50%" y="-50%" width="200%" height="200%" filterUnits="objectBoundingBox" id="filter-1">
            <feOffset dx="0" dy="5" in="SourceAlpha" result="shadowOffsetInner1"></feOffset>
            <feGaussianBlur stdDeviation="1.5" in="shadowOffsetInner1" result="shadowBlurInner1"></feGaussianBlur>
            <feComposite in="shadowBlurInner1" in2="SourceAlpha" operator="arithmetic" k2="-1" k3="1" result="shadowInnerInner1"></feComposite>
            <feColorMatrix values="0 0 0 0 0   0 0 0 0 0   0 0 0 0 0  0 0 0 0.228241055 0" in="shadowInnerInner1" type="matrix" result="shadowMatrixInner1"></feColorMatrix>
            <feMerge>
                <feMergeNode in="SourceGraphic"></feMergeNode>
                <feMergeNode in="shadowMatrixInner1"></feMergeNode>
            </feMerge>
        </filter>
    </defs>
    <g id="Page-1" stroke="none" stroke-width="1" fill="none" fill-rule="evenodd" sketch:type="MSPage">
        <g id="Ref_Fyber" sketch:type="MSArtboardGroup" transform="translate(-249.000000, -2960.000000)">
            <g id="Weitere_Projekte" sketch:type="MSLayerGroup" transform="translate(-22.000000, 2718.000000)">
                <g id="clientBox_Corsual" transform="translate(271.000000, 242.000000)" sketch:type="MSShapeGroup">
                    <rect id="Mask-Copy-5" stroke="#FFFFFF" stroke-width="4" fill="#C83D21" filter="url(#filter-1)" x="0" y="0" width="300" height="187"></rect>
                    <g id="Imported-Layers-Copy" transform="translate(66.000000, 68.000000)">
                        <path d="M162.879835,51 L6.12016461,51 C2.75407407,51 0,48.2181818 0,44.8181818 L0,6.18181818 C0,2.78181818 2.75407407,0 6.12016461,0 L162.879835,0 C166.245926,0 169,2.78181818 169,6.18181818 L169,44.8181818 C169,48.2181818 166.245926,51 162.879835,51 L162.879835,51 Z" id="Fill-1" fill="#FFFFFF"></path>
                        <path d="M162.879835,51 L6.12016461,51 C2.75407407,51 0,48.2181818 0,44.8181818 L0,6.18181818 C0,2.78181818 2.75407407,0 6.12016461,0 L162.879835,0 C166.245926,0 169,2.78181818 169,6.18181818 L169,44.8181818 C169,48.2181818 166.245926,51 162.879835,51 L162.879835,51 Z" id="Stroke-2" stroke="#FFFFFF" stroke-width="6"></path>
                        <path d="M94,25.2197802 L83.9072374,15.0405165 L83.9072374,0 L5.48786673,0 C2.46942889,0 0,2.49059341 0,5.53434066 L0,44.9052198 C0,48.2572088 2.71948358,51 6.0435438,51 L83.9072374,51 L83.9072374,35.399044 L94,25.2197802" id="Fill-3" fill="#C83D21"></path>
                        <path d="M162.913346,0 L82,0 L82,14.2951319 L93.2135192,25.5 L82,36.705989 L82,51 L163.004808,51 C166.315827,51 169,48.3026044 169,44.9752747 L169,6.11663736 C169,2.73830769 166.275115,0 162.913346,0" id="Fill-4" fill="#FFFFFF"></path>
                        <path d="M111,30.7104469 C111,31.7003161 110.814149,32.5855247 110.441864,33.3660727 C110.068997,34.1466207 109.537661,34.8070844 108.847857,35.3474637 C108.156887,35.8883939 107.315605,36.2987738 106.322846,36.5797049 C105.330087,36.8595344 104.213233,37 102.972285,37 C101.774449,37 100.655264,36.910763 99.614149,36.7322891 C98.5724511,36.554366 97.7014565,36.2910619 97,35.9440293 L97,33.2206495 C97.3670412,33.3836998 97.784769,33.5445466 98.2543487,33.7026393 C98.7239284,33.8607319 99.2173949,34.0006466 99.7353308,34.1234852 C100.253267,34.245222 100.787516,34.344925 101.337495,34.4220434 C101.887474,34.4980601 102.432792,34.5366192 102.972285,34.5366192 C104.698543,34.5366192 105.974449,34.2303492 106.8,33.6183599 C107.625551,33.0058198 108.038036,32.1288739 108.038036,30.9858696 C108.038036,30.4350242 107.959967,29.9557887 107.803829,29.5476122 C107.647108,29.1399866 107.371536,28.7648609 106.978277,28.4227858 C106.584436,28.0812617 106.058344,27.7496527 105.4,27.427959 C104.741656,27.1068161 103.910861,26.758131 102.907615,26.380251 C101.9469,26.0233032 101.113192,25.6333046 100.407074,25.2097045 C99.7003745,24.7861043 99.1177695,24.3090722 98.6586767,23.778608 C98.2001665,23.2481439 97.8605077,22.6466207 97.6391178,21.9729367 C97.4177278,21.2992528 97.3076155,20.5346793 97.3076155,19.6775638 C97.3076155,18.7796858 97.4800666,17.9787565 97.8255514,17.2753269 C98.1710362,16.5707956 98.6563462,15.9769842 99.2826467,15.4922403 C99.9077819,15.0080471 100.655264,14.6384299 101.523346,14.3828376 C102.392593,14.1277961 103.349813,14 104.396754,14 C105.680233,14 106.834956,14.1145758 107.859759,14.3442784 C108.885144,14.5739809 109.796338,14.8675815 110.595672,15.2245294 L109.510861,17.6118935 C108.809405,17.3160895 108.014149,17.0582938 107.123928,16.8390573 C106.233125,16.61927 105.313192,16.5096518 104.364128,16.5096518 C103.048023,16.5096518 102.028464,16.7982948 101.304869,17.3744791 C100.582439,17.9506634 100.220641,18.7284572 100.220641,19.7084112 C100.220641,20.2895531 100.302206,20.792475 100.463587,21.2155243 C100.625551,21.6391244 100.894715,22.0214111 101.272826,22.3629353 C101.650354,22.7050103 102.149646,23.0261532 102.770121,23.3274656 C103.390012,23.6282272 104.153808,23.9471667 105.060341,24.2831824 C106.042031,24.6505964 106.902538,25.0284763 107.641282,25.4162715 C108.380608,25.8040667 108.998169,26.2425396 109.495131,26.7322412 C109.990928,27.221392 110.366126,27.7882119 110.620141,28.4310485 C110.872992,29.0733343 111,29.833501 111,30.7104469" id="Fill-5" fill="#C83D21"></path>
                        <path d="M129,14 L129,28.6926622 C129,29.8704184 128.824088,30.9661613 128.471688,31.9782171 C128.118711,32.9913887 127.587515,33.8695452 126.876947,34.6132444 C126.166955,35.3575015 125.275284,35.9410794 124.201357,36.365094 C123.128007,36.7885506 121.864902,37 120.412044,37 C119.044546,37 117.837388,36.8013827 116.791145,36.4035901 C115.743749,36.0057975 114.865344,35.4406307 114.154775,34.706416 C113.444784,33.9727592 112.90782,33.0918132 112.544461,32.0641358 C112.181679,31.0359005 112,29.8916192 112,28.6307338 L112,14.0312432 L114.996268,14.0312432 L114.996268,28.7858338 C114.996268,30.5940327 115.458253,31.9943966 116.382222,32.9858096 C117.306192,33.9777805 118.702528,34.4737659 120.572383,34.4737659 C121.522884,34.4737659 122.340153,34.3342874 123.02419,34.0553305 C123.707074,33.7763736 124.268261,33.3836022 124.706022,32.8775743 C125.143783,32.3709885 125.469652,31.7673257 125.68363,31.0643542 C125.897031,30.3613827 126.008923,29.5914615 126.019881,28.7545907 L126.019881,14 L129,14" id="Fill-6" fill="#C83D21"></path>
                        <path d="M144.101052,37 L141.659168,29.9029474 L133.341381,29.9029474 L130.869282,37 L128,37 L136.195281,14 L138.789886,14 L147,37 L144.101052,37 L144.101052,37 Z M140.758775,27.3176892 L138.500376,20.6740719 C138.438848,20.4862685 138.365234,20.2567309 138.278436,19.9854593 C138.192188,19.7136237 138.103192,19.420921 138.01145,19.1079153 C137.920257,18.7943455 137.828514,18.4678044 137.736772,18.1288559 C137.64503,17.7893433 137.558781,17.4571625 137.477476,17.1334412 C137.40606,17.4571625 137.324756,17.7915992 137.233013,18.1361875 C137.14182,18.4813398 137.050078,18.8129567 136.958336,19.1310382 C136.867143,19.4502477 136.777598,19.7423863 136.691898,20.0085822 C136.604551,20.2747781 136.531487,20.496984 136.469959,20.6740719 L134.257156,27.3176892 L140.758775,27.3176892 L140.758775,27.3176892 Z" id="Fill-7" fill="#C83D21"></path>
                        <path d="M149,36 L149,14 L151.940669,14 L151.940669,33.5017482 L161,33.5017482 L161,36 L149,36" id="Fill-8" fill="#C83D21"></path>
                        <path d="M22.6376456,32.3554306 C25.0953814,32.3554306 27.1050463,31.390311 28.6655312,29.460622 L31.871346,32.7372967 C29.3276559,35.5798325 26.3297948,37 22.8783174,37 C19.4262854,37 16.5831419,35.9182297 14.349996,33.7552392 C12.1162957,31.5922488 11,28.8619617 11,25.5638278 C11,22.2656938 12.1379228,19.5139474 14.4143231,17.3085885 C16.6907233,15.1026794 19.4745306,14 22.7662996,14 C26.4423671,14 29.5200824,15.3888038 32,18.1669617 L28.8895667,21.6670335 C27.3080092,19.7158852 25.3415987,18.7397608 22.9903351,18.7397608 C21.1093242,18.7397608 19.5011487,19.3499761 18.1652539,20.568756 C16.8293591,21.7886364 16.161689,23.432201 16.161689,25.5 C16.161689,27.567799 16.7916502,29.2273206 18.0532362,30.4785646 C19.3142676,31.7303589 20.8420344,32.3554306 22.6376456,32.3554306" id="Fill-9" fill="#FFFFFF"></path>
                        <path d="M50.6782053,33.7033444 C48.4636756,35.9012985 45.7375168,37 42.499729,37 C39.2613993,37 36.5357825,35.9012985 34.3217947,33.7033444 C32.1072649,31.5053903 31,28.7707585 31,25.5 C31,22.2297925 32.1072649,19.4951607 34.3217947,17.2966556 C36.5357825,15.0987015 39.2613993,14 42.499729,14 C45.7375168,14 48.4636756,15.0987015 50.6782053,17.2966556 C52.8921931,19.4951607 54,22.2297925 54,25.5 C54,28.7707585 52.8921931,31.5053903 50.6782053,33.7033444 L50.6782053,33.7033444 Z M49.017579,25.5159791 C49.017579,23.5301615 48.3910503,21.8369268 47.1374508,20.4351732 C45.8838514,19.0334196 44.3430026,18.3319918 42.5154464,18.3319918 C40.6873483,18.3319918 39.1470415,19.0334196 37.893442,20.4351732 C36.6403846,21.8369268 36.0138558,23.5301615 36.0138558,25.5159791 C36.0138558,27.5017968 36.6403846,29.1900723 37.893442,30.5813569 C39.1470415,31.9720905 40.6873483,32.6680082 42.5154464,32.6680082 C44.3430026,32.6680082 45.8838514,31.9720905 47.1374508,30.5813569 C48.3910503,29.1900723 49.017579,27.5017968 49.017579,25.5159791 L49.017579,25.5159791 Z" id="Fill-10" fill="#FFFFFF"></path>
                        <path d="M73.5596603,21.3017593 C73.5596603,24.8271596 72.1079972,27.1037537 69.2063694,28.1315418 L75,36 L68.7149328,36 L63.641472,28.9807735 L60.1062987,28.9807735 L60.1062987,36 L55,36 L55,14 L63.67431,14 C67.2309979,14 69.7674452,14.577042 71.2847841,15.7311261 C72.8009908,16.8852102 73.5596603,18.7420879 73.5596603,21.3017593 L73.5596603,21.3017593 Z M67.4059448,23.9142355 C68.0383581,23.3687675 68.355414,22.5032044 68.355414,21.3175463 C68.355414,20.1318883 68.0276008,19.3185856 67.3731069,18.8781828 C66.7186129,18.4372355 65.5726822,18.2173063 63.9358811,18.2173063 L60.1062987,18.2173063 L60.1062987,24.7324376 L63.8379335,24.7324376 C65.5834395,24.7324376 66.7723992,24.4602479 67.4059448,23.9142355 L67.4059448,23.9142355 Z" id="Fill-11" fill="#FFFFFF"></path>
                    </g>
                </g>
            </g>
        </g>
    </g>
</svg>