<?xml version="1.0" encoding="UTF-8" standalone="no"?>
<svg width="300px" height="187px" viewBox="0 0 300 187" version="1.1" xmlns="http://www.w3.org/2000/svg" xmlns:xlink="http://www.w3.org/1999/xlink" xmlns:sketch="http://www.bohemiancoding.com/sketch/ns">
    <!-- Generator: Sketch 3.3.3 (12072) - http://www.bohemiancoding.com/sketch -->
    <title>clientBox_AppBounty</title>
    <desc>Created with Sketch.</desc>
    <defs>
        <filter x="-50%" y="-50%" width="200%" height="200%" filterUnits="objectBoundingBox" id="filter-1">
            <feOffset dx="0" dy="5" in="SourceAlpha" result="shadowOffsetInner1"></feOffset>
            <feGaussianBlur stdDeviation="1.5" in="shadowOffsetInner1" result="shadowBlurInner1"></feGaussianBlur>
            <feComposite in="shadowBlurInner1" in2="SourceAlpha" operator="arithmetic" k2="-1" k3="1" result="shadowInnerInner1"></feComposite>
            <feColorMatrix values="0 0 0 0 0   0 0 0 0 0   0 0 0 0 0  0 0 0 0.231 0" in="shadowInnerInner1" type="matrix" result="shadowMatrixInner1"></feColorMatrix>
            <feMerge>
                <feMergeNode in="SourceGraphic"></feMergeNode>
                <feMergeNode in="shadowMatrixInner1"></feMergeNode>
            </feMerge>
        </filter>
    </defs>
    <g id="Page-1" stroke="none" stroke-width="1" fill="none" fill-rule="evenodd" sketch:type="MSPage">
        <g id="Ref_Fyber" sketch:type="MSArtboardGroup" transform="translate(-891.000000, -2960.000000)">
            <g id="Weitere_Projekte" sketch:type="MSLayerGroup" transform="translate(-22.000000, 2718.000000)">
                <g id="clientBox_AppBounty" transform="translate(913.000000, 242.000000)" sketch:type="MSShapeGroup">
                    <rect id="Rectangle-5-Copy-2" stroke="#FFFFFF" stroke-width="4" fill="#2C99E1" filter="url(#filter-1)" x="0" y="0" width="300" height="187"></rect>
                    <g id="logo_AppBounty" transform="translate(41.000000, 69.000000)" fill="#FFFFFF">
                        <g id="Group">
                            <path d="M110.970385,15.6213675 C120.612692,12.3965812 121.367308,0.335042735 111.892692,0.293162393 C109.293462,0.293162393 106.149231,2.13589744 103.969231,5.86324786 L91.0569231,28.0598291 C90.47,29.1068376 89.8411538,29.9863248 89.2123077,30.7820513 C85.9003846,26.217094 86.9065385,19.4324786 91.5180769,16.4589744 L89.7153846,14.1974359 C85.3973077,16.7940171 83.4269231,21.7358974 83.9719231,26.4683761 C81.3726923,29.4 78.3542308,31.7452991 75.6292308,32.708547 C76.4257692,31.4521368 77.0126923,30.1538462 77.5996154,29.1487179 L82.8819231,20.1444444 C87.3676923,12.6059829 80.1569231,10.0512821 75.2519231,14.4068376 L76.2161538,12.7735043 L71.4369231,12.7735043 L63.9326923,25.7145299 L63.9326923,25.7145299 L63.5973077,26.091453 C60.9142308,29.1905983 57.77,31.7871795 54.8773077,32.7504274 C55.6738462,31.4940171 56.2607692,30.1957265 56.8476923,29.1905983 L62.13,20.1863248 C66.6157692,12.6478632 59.405,10.0931624 54.5,14.4487179 L55.4642308,12.8153846 L50.685,12.8153846 L43.6419231,25.0025641 L42.8873077,26.091453 C39.4496154,30.0700855 36.2215385,32.9598291 35.3411538,32.9598291 C34.6703846,32.9598291 34.5446154,32.4991453 35.2153846,30.6145299 L44.7319231,3.0991453 C34.2092308,-0.335042735 25.3634615,29.0649573 12.7026923,32.5410256 C9.09730769,33.5461538 1.38346154,32.3735043 3.06038462,25.4632479 C4.86307692,18.0504274 15.0084615,19.474359 16.0984615,22.782906 C16.35,22.8666667 18.1526923,21.7777778 18.1526923,21.4846154 C16.0565385,16.165812 3.98269231,15.5794872 0.922307692,23.4529915 C-1.67692308,30.1538462 2.43153846,36.1008547 10.9838462,35.4307692 C18.2365385,34.8863248 21.3388462,30.6564103 26.5373077,24.5 L32.9515385,24.5 L31.2326923,29.3581197 C29.975,32.8760684 30.3103846,36.142735 33.7480769,36.142735 C35.2153846,36.142735 36.7246154,35.4307692 38.2757692,34.2162393 L31.5680769,45.7752137 L35.97,45.7752137 L50.7269231,20.9820513 C56.1769231,13.6111111 59.5307692,16.291453 58.2730769,18.4273504 L51.0203846,30.9076923 C50.2238462,32.2897436 48.4630769,32.708547 47.5826923,30.9076923 L44.8576923,32.2059829 C44.8576923,32.2059829 45.7380769,36.0589744 50.0980769,36.0589744 L50.3915385,36.0589744 C54.1226923,35.9752137 57.1411538,34.7606838 59.7823077,32.9598291 L52.4038462,45.691453 L56.8057692,45.691453 L71.5626923,20.8982906 C76.8869231,13.6529915 80.2407692,16.3333333 79.025,18.4692308 L71.8142308,30.9495726 C71.0176923,32.3316239 69.2569231,32.7504274 68.3765385,30.9495726 L65.6515385,32.2478632 C65.6515385,32.2478632 66.5319231,36.1008547 70.8919231,36.1008547 L71.1853846,36.1008547 C77.0546154,35.9752137 81.205,33.0435897 84.7265385,29.3581197 C86.4453846,34.5094017 91.2665385,38.7811966 99.3157692,38.8230769 C113.527692,38.8230769 120.151538,21.7358974 110.970385,15.6213675 L110.970385,15.6213675 Z M33.8319231,22.0709402 L28.34,22.0709402 C31.9034615,17.2128205 35.2153846,12.1034188 38.6530769,8.54358974 L33.8319231,22.0709402 L33.8319231,22.0709402 Z M99.1480769,35.1376068 C96.2973077,35.1376068 94.0334615,34.4675214 92.2726923,33.4623932 C93.1111538,32.4991453 93.9496154,31.3264957 94.6623077,30.0700855 L102.711538,16.2076923 L104.011154,16.3333333 C115.204615,18.6786325 110.718846,35.1376068 99.1480769,35.1376068 L99.1480769,35.1376068 Z M104.346538,13.4017094 L108.203462,6.78461538 C111.725,0.795726496 116.168846,4.31367521 113.737308,8.79487179 C111.892692,12.2709402 109.209615,13.3179487 104.346538,13.4017094 L104.346538,13.4017094 Z" id="Shape"></path>
                            <path d="M216.029615,25.8820513 L215.694231,26.2589744 C211.753462,30.7820513 208.399615,33.7136752 204.626538,35.3051282 L217.748462,12.9410256 L212.969231,12.9410256 L204.500769,27.5991453 C200.811538,30.991453 197.960769,32.8760684 197.038462,32.457265 C195.864615,31.9547009 197.038462,30.1538462 197.625385,29.1487179 L206.974231,12.9410256 L202.195,12.9410256 L194.690769,25.8401709 L194.355385,26.217094 C190.917692,30.1957265 187.563846,33.3786325 185.425769,33.3367521 C184.377692,33.3367521 183.790769,32.582906 184.880769,30.7401709 L195.151923,12.8991453 L199.050769,12.8991453 L200.434231,10.5957265 L196.493462,10.5957265 L201.021154,2.80598291 L196.241923,2.80598291 L191.714231,10.5957265 L187.396154,10.5957265 L186.012692,12.8991453 L190.372692,12.8991453 L182.868462,25.8401709 L182.868462,25.8401709 L182.533077,26.217094 C179.095385,30.1957265 175.741538,33.3786325 173.603462,33.3367521 C172.555385,33.3367521 171.968462,32.582906 173.058462,30.7401709 L179.975769,18.6786325 C182.03,15.0769231 180.059615,12.4384615 177.418462,12.4384615 C175.364231,12.4384615 173.184231,13.5273504 170.794615,15.9982906 L172.597308,12.8991453 L167.818077,12.8991453 L160.313846,25.8401709 L159.978462,26.217094 C156.540769,30.1957265 153.186923,33.3786325 151.048846,33.3367521 C150.000769,33.3367521 149.413846,32.582906 150.503846,30.7401709 L160.733077,12.8991453 L155.953846,12.8991453 L147.527308,27.6410256 C143.88,30.9495726 141.071154,32.7504274 140.190769,32.3316239 C139.016923,31.8290598 140.190769,30.0282051 140.777692,29.0230769 L150.126538,12.8153846 L145.347308,12.8153846 L137.717308,25.965812 C135.537308,28.3111111 132.686538,29.6094017 130.296923,29.6512821 L134.824615,21.9034188 C137.717308,16.9196581 135.076154,12.1871795 130.590385,12.1871795 C126.901154,12.1871795 124.050385,13.6529915 121.325385,18.4273504 L118.977692,22.4897436 L116.923462,26.0076923 C110.886538,36.3102564 122.415385,40.1632479 128.829615,32.0384615 L129.877692,32.0384615 C131.386923,32.0384615 133.315385,31.5777778 135.16,30.6982906 C133.860385,34.0068376 135.076154,36.2264957 137.801154,36.2264957 C140.400385,36.2264957 143.376923,33.8393162 145.640769,31.6615385 C145.179615,34.2162393 146.688846,36.2683761 149.707308,36.2683761 C151.635769,36.2683761 153.731923,35.2632479 155.828077,33.6717949 L154.570385,35.8076923 L159.391538,35.8076923 L166.728077,23.1179487 C174.064615,13.9880342 177.292692,15.2025641 175.238462,18.7205128 L169.033846,29.4837607 C167.021538,33.0017094 168.405,36.2683761 172.261923,36.2683761 C174.693462,36.2683761 177.292692,34.7188034 179.891923,32.4153846 C179.808077,34.6350427 181.317308,36.2683761 184.042308,36.2683761 C186.39,36.2683761 188.989231,34.7606838 191.546538,32.582906 C191.253077,34.8863248 192.468846,36.3102564 194.648846,36.3102564 C196.954615,36.3102564 199.553846,34.3837607 201.733846,32.457265 L199.092692,36.9384615 C192.636538,38.8649573 188.57,41.5034188 188.57,45.0632479 C188.57,49.6700855 195.571154,50.6333333 199.050769,44.7700855 L202.74,38.4880342 C207.686923,36.9384615 212.424231,33.3367521 217.706538,27.2641026 C217.371154,26.6777778 216.700385,26.1752137 216.029615,25.8820513 L216.029615,25.8820513 Z M127.655769,26.0495726 L127.446154,26.0495726 C125.895,26.0495726 124.637308,27.3478632 124.637308,28.8974359 C124.637308,29.4837607 124.805,30.0282051 125.098462,30.4888889 L125.056538,30.5726496 C122.792692,34.425641 117.342692,33.6717949 120.193462,28.7299145 L123.840769,22.4478632 L126.146538,18.5529915 C129.500385,12.857265 134.111923,15.1188034 131.177308,20.0606838 L127.655769,26.0495726 L127.655769,26.0495726 Z M195.068077,44.0162393 C194.061923,45.817094 192.468846,45.5239316 192.468846,44.225641 C192.468846,42.9692308 193.642692,41.5871795 197.29,40.1632479 L195.068077,44.0162393 L195.068077,44.0162393 Z" id="Shape"></path>
                        </g>
                    </g>
                </g>
            </g>
        </g>
    </g>
</svg>