<?xml version="1.0" encoding="UTF-8" standalone="no"?>
<svg width="140px" height="140px" viewBox="0 0 140 140" version="1.1" xmlns="http://www.w3.org/2000/svg" xmlns:xlink="http://www.w3.org/1999/xlink" xmlns:sketch="http://www.bohemiancoding.com/sketch/ns">
    <!-- Generator: Sketch 3.3.3 (12072) - http://www.bohemiancoding.com/sketch -->
    <title>icon_concept</title>
    <desc>Created with Sketch.</desc>
    <defs></defs>
    <g id="Page-1" stroke="none" stroke-width="1" fill="none" fill-rule="evenodd" sketch:type="MSPage">
        <g id="Startseite" sketch:type="MSArtboardGroup" transform="translate(-320.000000, -2156.000000)">
            <g id="Group" sketch:type="MSLayerGroup" transform="translate(240.000000, 2012.000000)">
                <g id="icon_concept" transform="translate(80.000000, 144.000000)" sketch:type="MSShapeGroup">
                    <circle id="Oval-1-Copy" fill="#FEB901" cx="70" cy="70" r="70"></circle>
                    <g id="basic_pencil_ruler_pen-" transform="translate(46.000000, 39.000000)" stroke="#FFFFFF" stroke-width="2">
                        <rect id="Rectangle-path" x="14" y="0" width="16" height="62"></rect>
                        <path d="M23,11 L30,11" id="Shape"></path>
                        <path d="M30,21 L27,21" id="Shape"></path>
                        <path d="M30,41 L27,41" id="Shape"></path>
                        <path d="M23,31 L30,31" id="Shape"></path>
                        <path d="M23,51 L30,51" id="Shape"></path>
                        <path d="M8,62 L8,9 L4,1 L0,9 L0,62 L8,62 Z" id="Shape"></path>
                        <path d="M8,52 L0,52" id="Shape"></path>
                        <path d="M48,2 L48,52 L44,60 L40,52 L40,2 L48,2 Z" id="Shape"></path>
                        <path d="M40,6 L36,6 L36,16" id="Shape"></path>
                    </g>
                </g>
            </g>
        </g>
    </g>
</svg>