<?xml version="1.0" encoding="UTF-8" standalone="no"?>
<svg width="140px" height="140px" viewBox="0 0 140 140" version="1.1" xmlns="http://www.w3.org/2000/svg" xmlns:xlink="http://www.w3.org/1999/xlink" xmlns:sketch="http://www.bohemiancoding.com/sketch/ns">
    <!-- Generator: Sketch 3.3.3 (12072) - http://www.bohemiancoding.com/sketch -->
    <title>icon_interaktion</title>
    <desc>Created with Sketch.</desc>
    <defs></defs>
    <g id="Page-1" stroke="none" stroke-width="1" fill="none" fill-rule="evenodd" sketch:type="MSPage">
        <g id="Startseite" sketch:type="MSArtboardGroup" transform="translate(-641.000000, -2156.000000)">
            <g id="Group" sketch:type="MSLayerGroup" transform="translate(240.000000, 2012.000000)">
                <g id="icon_interaktion" transform="translate(401.000000, 144.000000)" sketch:type="MSShapeGroup">
                    <path d="M70,140 C108.659932,140 140,108.659932 140,70 C140,31.3400675 108.659932,0 70,0 C31.3400675,0 0,31.3400675 0,70 C0,108.659932 31.3400675,140 70,140 Z" id="Oval-1" fill="#FEB901"></path>
                    <g id="basic_webpage_img_txt" transform="translate(39.000000, 44.000000)" stroke="#FFFFFF" stroke-width="2">
                        <rect id="Rectangle-path" x="0" y="0" width="62" height="50"></rect>
                        <path d="M0,8 L62,8" id="Shape"></path>
                        <path d="M9,4 L5,4" id="Shape"></path>
                        <path d="M17,4 L13,4" id="Shape"></path>
                        <path d="M25,4 L21,4" id="Shape"></path>
                        <path d="M5,18 L32,18" id="Shape"></path>
                        <path d="M5,26 L32,26" id="Shape"></path>
                        <path d="M5,34 L32,34" id="Shape"></path>
                        <rect id="Rectangle-path" x="37" y="18" width="19" height="16"></rect>
                    </g>
                </g>
            </g>
        </g>
    </g>
</svg>