<?xml version="1.0" encoding="UTF-8" standalone="no"?>
<svg width="46px" height="50px" viewBox="0 0 46 50" version="1.1" xmlns="http://www.w3.org/2000/svg" xmlns:xlink="http://www.w3.org/1999/xlink" xmlns:sketch="http://www.bohemiancoding.com/sketch/ns">
    <!-- Generator: Sketch 3.3.3 (12072) - http://www.bohemiancoding.com/sketch -->
    <title>logo_munum</title>
    <desc>Created with Sketch.</desc>
    <defs></defs>
    <g id="Page-1" stroke="none" stroke-width="1" fill="none" fill-rule="evenodd" sketch:type="MSPage">
        <g id="Startseite" sketch:type="MSArtboardGroup" transform="translate(-697.000000, -45.000000)" fill="#FEB901">
            <g id="Group" sketch:type="MSLayerGroup" transform="translate(331.000000, 46.000000)">
                <g id="logo_munum" transform="translate(366.000000, -1.000000)" sketch:type="MSShapeGroup">
                    <path d="M16.6666667,17.9752525 L16.6666667,27.2727273 L29.2929293,27.2727273 L29.2929293,18.0762626 L23.1287879,25.4666667 L16.6666667,17.9752525" id="Fill-1"></path>
                    <path d="M40.430303,9.04090909 L27.8464646,1.78838384 C24.7338384,-0.00404040404 20.9080808,-0.00404040404 17.7954545,1.78838384 L5.12424242,9.04090909 C2.00050505,10.839899 0,14.169697 0,17.7747475 L0,32.2333333 C0,35.8378788 2.00353535,39.1676768 5.12727273,40.9666667 L17.7621212,48.2191919 C20.8752525,50.0116162 24.7262626,50.0116162 27.8393939,48.2191919 L40.420202,40.9666667 C43.5439394,39.1676768 45.4545455,35.8378788 45.4545455,32.2333333 L45.4545455,17.7747475 C45.4545455,14.169697 43.5540404,10.839899 40.430303,9.04090909 L40.430303,9.04090909 Z M34.5146465,37.9020202 C31.5949495,37.9020202 29.2929293,35.5217172 29.2929293,32.610101 L29.2929293,30.3030303 L11.6449495,30.3030303 C10.129798,30.3030303 9.06363636,31.2893939 9.06363636,32.6040404 C9.06363636,33.9181818 9.97020202,34.990404 11.2848485,34.990404 C12.5989899,34.990404 13.6363636,33.920202 13.6363636,32.610101 L13.6363636,31.8181818 L16.6666667,31.8181818 L16.6666667,32.610101 C16.6666667,35.5217172 14.270202,37.9020202 11.3505051,37.9020202 C8.43080808,37.9020202 5.97171717,35.5252525 5.97171717,32.6055556 C5.97171717,29.7333333 8.08080808,27.3883838 11.1111111,27.3126263 L11.1111111,27.2727273 L13.6363636,27.2727273 L13.6363636,10.1606061 L23.0914141,20.9742424 L32.3232323,10.059596 L32.3232323,32.9752525 C32.3232323,34.139899 33.4166667,34.9858586 34.6035354,34.9858586 C35.9176768,34.9858586 36.8318182,33.919697 36.8318182,32.6055556 C36.8318182,31.2914141 35.9116162,30.3030303 34.3964646,30.3030303 L34.4005051,30.3030303 L33.8383838,30.3030303 L33.8383838,27.2727273 L34.9055556,27.2727273 L34.9015152,27.2727273 C37.4267677,27.3883838 39.8939394,29.7590909 39.8939394,32.6055556 C39.8939394,35.5252525 37.4343434,37.9020202 34.5146465,37.9020202 L34.5146465,37.9020202 Z" id="Fill-2"></path>
                </g>
            </g>
        </g>
    </g>
</svg>