<?xml version="1.0" encoding="UTF-8" standalone="no"?>
<svg width="287px" height="91px" viewBox="0 0 287 91" version="1.1" xmlns="http://www.w3.org/2000/svg" xmlns:xlink="http://www.w3.org/1999/xlink" xmlns:sketch="http://www.bohemiancoding.com/sketch/ns">
    <!-- Generator: Sketch 3.3.3 (12072) - http://www.bohemiancoding.com/sketch -->
    <title>logo_corsual</title>
    <desc>Created with Sketch.</desc>
    <defs></defs>
    <g id="Page-1" stroke="none" stroke-width="1" fill="none" fill-rule="evenodd" sketch:type="MSPage">
        <g id="Ref_Corsual" sketch:type="MSArtboardGroup" transform="translate(-575.000000, -166.000000)">
            <g id="Hero" sketch:type="MSLayerGroup" transform="translate(-22.000000, 0.000000)">
                <g id="logo_corsual" transform="translate(600.000000, 169.000000)" sketch:type="MSShapeGroup">
                    <path d="M270.823868,85 L10.1761317,85 C4.57925926,85 0,80.3636364 0,74.6969697 L0,10.3030303 C0,4.63636364 4.57925926,0 10.1761317,0 L270.823868,0 C276.420741,0 281,4.63636364 281,10.3030303 L281,74.6969697 C281,80.3636364 276.420741,85 270.823868,85 L270.823868,85 Z" id="Fill-1" fill="#FFFFFF"></path>
                    <path d="M270.823868,85 L10.1761317,85 C4.57925926,85 0,80.3636364 0,74.6969697 L0,10.3030303 C0,4.63636364 4.57925926,0 10.1761317,0 L270.823868,0 C276.420741,0 281,4.63636364 281,10.3030303 L281,74.6969697 C281,80.3636364 276.420741,85 270.823868,85 L270.823868,85 Z" id="Stroke-2" stroke="#FFFFFF" stroke-width="6"></path>
                    <path d="M156,42.032967 L139.250309,25.0675275 L139.250309,0 L9.10752351,0 C4.09820114,0 0,4.15098901 0,9.2239011 L0,74.842033 C0,80.4286813 4.51318551,85 10.029711,85 L139.250309,85 L139.250309,58.9984066 L156,42.032967" id="Fill-3" fill="#C83D21"></path>
                    <path d="M270.925538,0 L137,0 L137,23.8252198 L155.560308,42.5 L137,61.1766484 L137,85 L271.076923,85 C276.557231,85 281,80.5043407 281,74.9587912 L281,10.1943956 C281,4.56384615 276.489846,0 270.925538,0" id="Fill-4" fill="#FFFFFF"></path>
                    <path d="M185,51.6085644 C185,53.2440006 184.694673,54.7065191 184.083063,55.9961201 C183.470495,57.2857211 182.597586,58.376922 181.464336,59.2697227 C180.329172,60.1634334 178.947066,60.8414523 177.316105,61.3055995 C175.685144,61.7679264 173.850312,62 171.81161,62 C169.843737,62 168.005077,61.852565 166.294673,61.5576951 C164.583313,61.2637352 163.152393,60.828711 162,60.2553528 L162,55.7558557 C162.602996,56.0252431 163.289263,56.2909901 164.060716,56.5521866 C164.832168,56.8133831 165.642863,57.0445466 166.493758,57.2474972 C167.344653,57.4486277 168.222347,57.6133544 169.125884,57.7407674 C170.029422,57.8663601 170.925302,57.9300666 171.81161,57.9300666 C174.647607,57.9300666 176.743737,57.4240552 178.1,56.4129425 C179.456263,55.4009197 180.133916,53.9520525 180.133916,52.0636107 C180.133916,51.1535182 180.00566,50.3617378 179.749147,49.6873593 C179.491677,49.0138909 179.038951,48.3941179 178.392884,47.8289505 C177.745859,47.2646932 176.881565,46.7168176 175.8,46.1853236 C174.718435,45.6547397 173.353558,45.0786511 171.705368,44.4543277 C170.12705,43.8645878 168.757387,43.2202424 167.597337,42.5203813 C166.43633,41.8205202 165.479193,41.0323801 164.724969,40.1559611 C163.971702,39.2795421 163.413691,38.2857211 163.049979,37.1726781 C162.686267,36.059635 162.505368,34.7964267 162.505368,33.3803228 C162.505368,31.8968722 162.788681,30.5735977 163.356263,29.4114097 C163.923845,28.2474014 164.72114,27.2663218 165.750062,26.4654404 C166.77707,25.6654692 168.005077,25.0547971 169.431211,24.6325143 C170.859259,24.2111414 172.431835,24 174.15181,24 C176.260383,24 178.157428,24.1892992 179.841032,24.5688078 C181.525593,24.9483163 183.022555,25.4333956 184.335747,26.0231355 L182.553558,29.9674762 C181.401165,29.4787565 180.094673,29.0528333 178.632168,28.6906165 C177.168706,28.3274896 175.657387,28.1463812 174.098211,28.1463812 C171.936038,28.1463812 170.261049,28.6232696 169.072285,29.5752263 C167.885435,30.527183 167.291053,31.8122336 167.291053,33.431288 C167.291053,34.3914356 167.425052,35.22235 167.690179,35.921301 C167.956263,36.621162 168.39846,37.2527662 169.019642,37.8170235 C169.639867,38.3821909 170.460133,38.9127748 171.479484,39.4105954 C172.497878,39.9075059 173.752684,40.4344494 175.241989,40.9896058 C176.854765,41.5966374 178.268456,42.2209609 179.482106,42.8616659 C180.696712,43.502371 181.711278,44.2268046 182.527715,45.0358768 C183.342239,45.8440389 183.958635,46.780524 184.375947,47.8426019 C184.791344,48.9037697 185,50.1596973 185,51.6085644" id="Fill-5" fill="#C83D21"></path>
                    <path d="M214,24 L214,48.2748332 C214,50.2206913 213.710263,52.0310491 213.129839,53.7031413 C212.548465,55.377077 211.673554,56.8279442 210.503206,58.0566646 C209.333808,59.2863069 207.865174,60.2504791 206.096353,60.9510249 C204.328482,61.6506489 202.248075,62 199.855131,62 C197.602782,62 195.614521,61.6718496 193.891298,61.014627 C192.166175,60.3574045 190.719389,59.4236507 189.549042,58.2106004 C188.379644,56.9984718 187.495233,55.5429958 186.89676,53.845094 C186.299237,52.1462705 186,50.2557186 186,48.1725167 L186,24.0516192 L190.93503,24.0516192 L190.93503,48.428769 C190.93503,51.416228 191.695946,53.7298727 193.217778,55.3678593 C194.73961,57.0067677 197.039457,57.826222 200.11922,57.826222 C201.68475,57.826222 203.03084,57.5957793 204.157489,57.1348939 C205.282239,56.6740085 206.206548,56.0250819 206.927566,55.1890358 C207.648584,54.3520679 208.18531,53.3547119 208.537744,52.1932808 C208.889228,51.0318496 209.07352,49.7598059 209.091569,48.3771498 L209.091569,24 L214,24" id="Fill-6" fill="#C83D21"></path>
                    <path d="M240.117562,62 L236.004915,50.2744348 L221.99601,50.2744348 L217.832476,62 L213,62 L226.802579,24 L231.17244,24 L245,62 L240.117562,62 L240.117562,62 Z M234.488464,46.0031386 L230.684844,35.0267275 C230.581218,34.7164435 230.457237,34.3372076 230.311051,33.8890197 C230.16579,33.4399 230.015902,32.9563043 229.861389,32.4391643 C229.707801,31.9210926 229.553287,31.3815899 229.398774,30.821588 C229.244261,30.2606542 229.099,29.7118337 228.962066,29.1769898 C228.841786,29.7118337 228.704852,30.2643813 228.550338,30.8337011 C228.39675,31.4039527 228.242237,31.9518415 228.087723,32.4773675 C227.934135,33.004757 227.783323,33.4874209 227.638987,33.9272228 C227.491875,34.3670247 227.36882,34.7341474 227.265194,35.0267275 L223.538368,46.0031386 L234.488464,46.0031386 L234.488464,46.0031386 Z" id="Fill-7" fill="#C83D21"></path>
                    <path d="M247,61 L247,24 L251.901115,24 L251.901115,56.7983946 L267,56.7983946 L267,61 L247,61" id="Fill-8" fill="#C83D21"></path>
                    <path d="M38.3960759,54.3263636 C42.4923024,54.3263636 45.8417439,52.7318182 48.442552,49.5436364 L53.7855766,54.9572727 C49.5460931,59.6536364 44.549658,62 38.7971956,62 C33.0438089,62 28.3052365,60.2127273 24.5833267,56.6390909 C20.8604928,53.0654545 19,48.5545455 19,43.1054545 C19,37.6563636 20.8965381,33.11 24.6905384,29.4663636 C28.4845388,25.8218182 33.1242177,24 38.6104994,24 C44.7372785,24 49.866804,26.2945455 54,30.8845455 L48.8159444,36.6672727 C46.1800153,33.4436364 42.9026644,31.8309091 38.9838918,31.8309091 C35.8488737,31.8309091 33.1685812,32.8390909 30.9420898,34.8527273 C28.7155985,36.8681818 27.602815,39.5836364 27.602815,43 C27.602815,46.4163636 28.6527503,49.1581818 30.7553936,51.2254545 C32.8571127,53.2936364 35.4033906,54.3263636 38.3960759,54.3263636" id="Fill-9" fill="#FFFFFF"></path>
                    <path d="M85.3673917,56.5533515 C81.6123194,60.184754 76.9897024,62 71.4995405,62 C66.0084596,62 61.3867616,60.184754 57.6326083,56.5533515 C53.8775361,52.9219491 52,48.4038618 52,43 C52,37.5970485 53.8775361,33.0789612 57.6326083,29.4466485 C61.3867616,25.815246 66.0084596,24 71.4995405,24 C76.9897024,24 81.6123194,25.815246 85.3673917,29.4466485 C89.1215449,33.0789612 91,37.5970485 91,43 C91,48.4038618 89.1215449,52.9219491 85.3673917,56.5533515 L85.3673917,56.5533515 Z M82.551547,43.0264003 C82.551547,39.7454842 81.4891722,36.9479661 79.3635035,34.6320253 C77.2378349,32.3160845 74.6250913,31.1572038 71.5261918,31.1572038 C68.4263732,31.1572038 65.8145486,32.3160845 63.68888,34.6320253 C61.5641304,36.9479661 60.5017555,39.7454842 60.5017555,43.0264003 C60.5017555,46.3073164 61.5641304,49.0966413 63.68888,51.3952853 C65.8145486,53.693019 68.4263732,54.8427962 71.5261918,54.8427962 C74.6250913,54.8427962 77.2378349,53.693019 79.3635035,51.3952853 C81.4891722,49.0966413 82.551547,46.3073164 82.551547,43.0264003 L82.551547,43.0264003 Z" id="Fill-10" fill="#FFFFFF"></path>
                    <path d="M122.623439,36.2802316 C122.623439,42.2093138 120.228195,46.0381313 115.44051,47.766684 L125,61 L114.629639,61 L106.258429,49.1949373 L100.425393,49.1949373 L100.425393,61 L92,61 L92,24 L106.312611,24 C112.181146,24 116.366285,24.9704798 118.869894,26.9114394 C121.371635,28.852399 122.623439,31.9753297 122.623439,36.2802316 L122.623439,36.2802316 Z M112.469809,40.6739416 C113.513291,39.7565635 114.036433,38.3008438 114.036433,36.3067825 C114.036433,34.3127212 113.495541,32.944894 112.415626,32.2042165 C111.335711,31.4626234 109.444926,31.0927424 106.744204,31.0927424 L100.425393,31.0927424 L100.425393,42.0500087 L106.58259,42.0500087 C109.462675,42.0500087 111.424459,41.5922352 112.469809,40.6739416 L112.469809,40.6739416 Z" id="Fill-11" fill="#FFFFFF"></path>
                </g>
            </g>
        </g>
    </g>
</svg>