<?xml version="1.0" encoding="UTF-8" standalone="no"?>
<svg width="396px" height="89px" viewBox="0 0 396 89" version="1.1" xmlns="http://www.w3.org/2000/svg" xmlns:xlink="http://www.w3.org/1999/xlink" xmlns:sketch="http://www.bohemiancoding.com/sketch/ns">
    <!-- Generator: Sketch 3.3.3 (12072) - http://www.bohemiancoding.com/sketch -->
    <title>logo_AppBounty</title>
    <desc>Created with Sketch.</desc>
    <defs></defs>
    <g id="Page-1" stroke="none" stroke-width="1" fill="none" fill-rule="evenodd" sketch:type="MSPage">
        <g id="Ref_AppBounty" sketch:type="MSArtboardGroup" transform="translate(-522.000000, -171.000000)" fill="#FFFFFF">
            <g id="logo_AppBounty" sketch:type="MSLayerGroup" transform="translate(522.000000, 171.000000)">
                <path d="M392.420769,47.0102564 L391.811538,47.6948718 C384.653077,55.9102564 378.560769,61.2350427 371.706923,64.125641 L395.543077,23.5051282 L386.861538,23.5051282 L371.478462,50.1290598 C364.776923,56.2905983 359.598462,59.7136752 357.923077,58.9529915 C355.790769,58.0401709 357.923077,54.7692308 358.989231,52.9435897 L375.971538,23.5051282 L367.29,23.5051282 L353.658462,46.934188 L353.049231,47.6188034 C346.804615,54.8452991 340.712308,60.6264957 336.828462,60.5504274 C334.924615,60.5504274 333.858462,59.1811966 335.838462,55.834188 L354.496154,23.4290598 L361.578462,23.4290598 L364.091538,19.2452991 L356.933077,19.2452991 L365.157692,5.0965812 L356.476154,5.0965812 L348.251538,19.2452991 L340.407692,19.2452991 L337.894615,23.4290598 L345.814615,23.4290598 L332.183077,46.934188 L332.183077,46.934188 L331.573846,47.6188034 C325.329231,54.8452991 319.236923,60.6264957 315.353077,60.5504274 C313.449231,60.5504274 312.383077,59.1811966 314.363077,55.834188 L326.928462,33.9264957 C330.66,27.3846154 327.080769,22.5923077 322.283077,22.5923077 C318.551538,22.5923077 314.591538,24.5700855 310.250769,29.0581197 L313.525385,23.4290598 L304.843846,23.4290598 L291.212308,46.934188 L290.603077,47.6188034 C284.358462,54.8452991 278.266154,60.6264957 274.382308,60.5504274 C272.478462,60.5504274 271.412308,59.1811966 273.392308,55.834188 L291.973846,23.4290598 L283.292308,23.4290598 L267.985385,50.2051282 C261.36,56.2145299 256.257692,59.4854701 254.658462,58.7247863 C252.526154,57.8119658 254.658462,54.5410256 255.724615,52.7153846 L272.706923,23.2769231 L264.025385,23.2769231 L250.165385,47.1623932 C246.205385,51.4222222 241.026923,53.7803419 236.686154,53.8564103 L244.910769,39.7837607 C250.165385,30.7316239 245.367692,22.1358974 237.219231,22.1358974 C230.517692,22.1358974 225.339231,24.7982906 220.389231,33.4700855 L216.124615,40.8487179 L212.393077,47.2384615 C201.426923,65.9512821 222.369231,72.9495726 234.020769,58.1923077 L235.924615,58.1923077 C238.666154,58.1923077 242.169231,57.3555556 245.52,55.7581197 C243.159231,61.7675214 245.367692,65.7991453 250.317692,65.7991453 C255.039231,65.7991453 260.446154,61.4632479 264.558462,57.5076923 C263.720769,62.1478632 266.462308,65.8752137 271.945385,65.8752137 C275.448462,65.8752137 279.256154,64.0495726 283.063846,61.1589744 L280.779231,65.0384615 L289.536923,65.0384615 L302.863846,41.9897436 C316.190769,25.4068376 322.054615,27.6128205 318.323077,34.0025641 L307.052308,53.5521368 C303.396923,59.9418803 305.91,65.8752137 312.916154,65.8752137 C317.333077,65.8752137 322.054615,63.0606838 326.776154,58.8769231 C326.623846,62.908547 329.365385,65.8752137 334.315385,65.8752137 C338.58,65.8752137 343.301538,63.1367521 347.946923,59.1811966 C347.413846,63.3649573 349.622308,65.9512821 353.582308,65.9512821 C357.770769,65.9512821 362.492308,62.4521368 366.452308,58.9529915 L361.654615,67.0923077 C349.926923,70.591453 342.54,75.3837607 342.54,81.8495726 C342.54,90.217094 355.257692,91.9666667 361.578462,81.317094 L368.28,69.9068376 C377.266154,67.0923077 385.871538,60.5504274 395.466923,49.5205128 C394.857692,48.4555556 393.639231,47.542735 392.420769,47.0102564 L392.420769,47.0102564 Z M231.888462,47.3145299 L231.507692,47.3145299 C228.69,47.3145299 226.405385,49.6726496 226.405385,52.4871795 C226.405385,53.5521368 226.71,54.5410256 227.243077,55.3777778 L227.166923,55.5299145 C223.054615,62.5282051 213.154615,61.1589744 218.333077,52.182906 L224.958462,40.7726496 L229.146923,33.6982906 C235.239231,23.3529915 243.616154,27.4606838 238.285385,36.4367521 L231.888462,47.3145299 L231.888462,47.3145299 Z M354.343846,79.9478632 C352.516154,83.2188034 349.622308,82.6863248 349.622308,80.3282051 C349.622308,78.0461538 351.754615,75.5358974 358.38,72.9495726 L354.343846,79.9478632 L354.343846,79.9478632 Z" id="Shape" sketch:type="MSShapeGroup"></path>
                <path d="M201.579231,28.3735043 C219.094615,22.5162393 220.465385,0.608547009 203.254615,0.532478632 C198.533077,0.532478632 192.821538,3.87948718 188.861538,10.6495726 L165.406154,50.965812 C164.34,52.8675214 163.197692,54.4649573 162.055385,55.9102564 C156.039231,47.6188034 157.866923,35.2957265 166.243846,29.8948718 L162.969231,25.7871795 C155.125385,30.5034188 151.546154,39.4794872 152.536154,48.0752137 C147.814615,53.4 142.331538,57.6598291 137.381538,59.4094017 C138.828462,57.1273504 139.894615,54.7692308 140.960769,52.9435897 L150.556154,36.5888889 C158.704615,22.8965812 145.606154,18.2564103 136.696154,26.1675214 L138.447692,23.2008547 L129.766154,23.2008547 L116.134615,46.7059829 L116.134615,46.7059829 L115.525385,47.3905983 C110.651538,53.0196581 104.94,57.7358974 99.6853846,59.4854701 C101.132308,57.2034188 102.198462,54.8452991 103.264615,53.0196581 L112.86,36.6649573 C121.008462,22.9726496 107.91,18.3324786 99,26.2435897 L100.751538,23.2769231 L92.07,23.2769231 L79.2761538,45.4128205 L77.9053846,47.3905983 C71.6607692,54.617094 65.7969231,59.865812 64.1976923,59.865812 C62.9792308,59.865812 62.7507692,59.0290598 63.9692308,55.6059829 L81.2561538,5.62905983 C62.1415385,-0.608547009 46.0730769,52.791453 23.0746154,59.1051282 C16.5253846,60.9307692 2.51307692,58.8008547 5.55923077,46.2495726 C8.83384615,32.7854701 27.2630769,35.3717949 29.2430769,41.3811966 C29.7,41.5333333 32.9746154,39.5555556 32.9746154,39.0230769 C29.1669231,29.3623932 7.23461538,28.2974359 1.67538462,42.5982906 C-3.04615385,54.7692308 4.41692308,65.5709402 19.9523077,64.3538462 C33.1269231,63.3649573 38.7623077,55.6820513 48.2053846,44.5 L59.8569231,44.5 L56.7346154,53.3239316 C54.45,59.7136752 55.0592308,65.6470085 61.3038462,65.6470085 C63.9692308,65.6470085 66.7107692,64.3538462 69.5284615,62.1478632 L57.3438462,83.142735 L65.34,83.142735 L92.1461538,38.1102564 C102.046154,24.7222222 108.138462,29.5905983 105.853846,33.4700855 L92.6792308,56.1384615 C91.2323077,58.6487179 88.0338462,59.4094017 86.4346154,56.1384615 L81.4846154,58.4965812 C81.4846154,58.4965812 83.0838462,65.4948718 91.0038462,65.4948718 L91.5369231,65.4948718 C98.3146154,65.342735 103.797692,63.1367521 108.595385,59.865812 L95.1923077,82.9905983 L103.188462,82.9905983 L129.994615,37.9581197 C139.666154,24.7982906 145.758462,29.6666667 143.55,33.5461538 L130.451538,56.2145299 C129.004615,58.7247863 125.806154,59.4854701 124.206923,56.2145299 L119.256923,58.5726496 C119.256923,58.5726496 120.856154,65.5709402 128.776154,65.5709402 L129.309231,65.5709402 C139.970769,65.342735 147.51,60.0179487 153.906923,53.3239316 C157.029231,62.6803419 165.786923,70.4393162 180.408462,70.5153846 C206.224615,70.5153846 218.256923,39.4794872 201.579231,28.3735043 L201.579231,28.3735043 Z M61.4561538,40.0880342 L51.48,40.0880342 C57.9530769,31.2641026 63.9692308,21.9837607 70.2138462,15.5179487 L61.4561538,40.0880342 L61.4561538,40.0880342 Z M180.103846,63.8213675 C174.925385,63.8213675 170.813077,62.6042735 167.614615,60.7786325 C169.137692,59.0290598 170.660769,56.8991453 171.955385,54.617094 L186.576923,29.4384615 L188.937692,29.6666667 C209.270769,33.9264957 201.122308,63.8213675 180.103846,63.8213675 L180.103846,63.8213675 Z M189.546923,24.3418803 L196.553077,12.3230769 C202.95,1.44529915 211.022308,7.83504274 206.605385,15.974359 C203.254615,22.2880342 198.380769,24.1897436 189.546923,24.3418803 L189.546923,24.3418803 Z" id="Shape" sketch:type="MSShapeGroup"></path>
            </g>
        </g>
    </g>
</svg>